<?xml version="1.0"?><svg fill="transparent" viewBox="-100 -100 200 200" width="200px" height="200px" xmlns="http://www.w3.org/2000/svg"><circle cx="-60" cy="60" r="7.5" stroke="black" fill="black" stroke-width=""/><circle cx="-60" cy="30" r="7.5" stroke="black" fill="black" stroke-width=""/><circle cx="-60" cy="0" r="7.5" stroke="black" fill="black" stroke-width=""/><circle cx="-60" cy="-30" r="7.5" stroke="black" fill="black" stroke-width=""/><circle cx="-60" cy="-60" r="7.5" stroke="black" fill="black" stroke-width=""/><circle cx="-30" cy="60" r="7.5" stroke="black" fill="black" stroke-width=""/><circle cx="-30" cy="30" r="7.5" stroke="black" fill="black" stroke-width=""/><circle cx="-30" cy="0" r="7.5" stroke="black" fill="black" stroke-width=""/><circle cx="-30" cy="-30" r="7.5" stroke="black" fill="black" stroke-width=""/><circle cx="-30" cy="-60" r="7.5" stroke="black" fill="black" stroke-width=""/><circle cx="0" cy="60" r="7.5" stroke="black" fill="black" stroke-width=""/><circle cx="0" cy="30" r="7.5" stroke="black" fill="black" stroke-width=""/><circle cx="0" cy="0" r="7.5" stroke="black" fill="black" stroke-width=""/><circle cx="0" cy="-30" r="7.5" stroke="black" fill="black" stroke-width=""/><circle cx="0" cy="-60" r="7.5" stroke="black" fill="black" stroke-width=""/><circle cx="30" cy="60" r="7.5" stroke="black" fill="black" stroke-width=""/><circle cx="30" cy="30" r="7.5" stroke="black" fill="black" stroke-width=""/><circle cx="30" cy="0" r="7.5" stroke="black" fill="black" stroke-width=""/><circle cx="30" cy="-30" r="7.5" stroke="black" fill="black" stroke-width=""/><circle cx="30" cy="-60" r="7.5" stroke="black" fill="black" stroke-width=""/><circle cx="60" cy="60" r="7.5" stroke="black" fill="black" stroke-width=""/><circle cx="60" cy="30" r="7.5" stroke="black" fill="black" stroke-width=""/><circle cx="60" cy="0" r="7.5" stroke="black" fill="black" stroke-width=""/><circle cx="60" cy="-30" r="7.5" stroke="black" fill="black" stroke-width=""/><circle cx="60" cy="-60" r="7.5" stroke="black" fill="black" stroke-width=""/></svg>