<?xml version="1.0"?><svg fill="transparent" viewBox="-100 -100 200 200" width="200px" height="200px" xmlns="http://www.w3.org/2000/svg"><path stroke="black" fill="none" stroke-width="10" d="M -65 -45 C  -65 -50,  -65 -50,  -65 -55 C  -65 -75,  -39 -75,  -39 -55 C  -39 -35,  -13 -35,  -13 -55 C  -13 -75,  13 -75,  13 -55 C  13 -35,  39 -35,  39 -55 C  39 -75,  65 -75,  65 -55 C  65 -50,  65 -50,  65 -45 "/><path stroke="black" fill="none" stroke-width="12.5" d="M -40 -10 C  -60 30,  -32 66,  0 66 C  32 66,  60 30,  40 -10 "/></svg>