<?xml version="1.0"?><svg fill="transparent" viewBox="-100 -100 200 200" width="200px" height="200px" xmlns="http://www.w3.org/2000/svg"><path stroke="black" fill="none" stroke-width="10" stroke-linejoin="miter" d="M -32 -80 L -5 -53"/><path stroke="black" fill="none" stroke-width="10" stroke-linejoin="miter" d="M 10 -38 L 38 -10"/><path stroke="black" fill="none" stroke-width="10" stroke-linejoin="miter" d="M 53 5 L 80 32"/><path stroke="black" fill="none" stroke-width="10" stroke-linejoin="miter" d="M -80 -32 L -53 -5"/><path stroke="black" fill="none" stroke-width="10" stroke-linejoin="miter" d="M -38 10 L -10 38"/><path stroke="black" fill="none" stroke-width="10" stroke-linejoin="miter" d="M 5 53 L 32 80"/><path stroke="black" fill="none" stroke-width="10" d="M -48 -64 C  -52 -60,  -52 -60,  -56 -56 C  -72 -40,  -56 -24,  -40 -40 C  -24 -56,  -8 -40,  -24 -24 C  -40 -8,  -24 8,  -8 -8 C  8 -24,  24 -8,  8 8 C  -8 24,  8 40,  24 24 C  40 8,  56 24,  40 40 C  24 56,  40 72,  56 56 C  60 52,  60 52,  64 48 "/></svg>