<?xml version="1.0"?><svg fill="transparent" viewBox="-100 -100 200 200" width="200px" height="200px" xmlns="http://www.w3.org/2000/svg"><path stroke="black" fill="black" stroke-width="" stroke-linejoin="miter" d="M 70 -70 L 70 -57.5 L -70 -57.5 L -70 -70 Z"/><path stroke="black" fill="black" stroke-width="" stroke-linejoin="miter" d="M 70 -38.125 L 70 -25.625 L 36.991 -25.625 L 31.765 -31.875 L 23.906 -38.125 Z"/><path stroke="black" fill="black" stroke-width="" stroke-linejoin="miter" d="M -70 -38.125 L -70 -25.625 L -36.991 -25.625 L -31.765 -31.875 L -23.906 -38.125 Z"/><path stroke="black" fill="black" stroke-width="" stroke-linejoin="miter" d="M -70 -6.25 L -70 6.25 L -44.564 6.25 L -45 0 L -44.564 -6.25 Z"/><path stroke="black" fill="black" stroke-width="" stroke-linejoin="miter" d="M 70 -6.25 L 70 6.25 L 44.564 6.25 L 45 0 L 44.564 -6.25 Z"/><path stroke="black" fill="black" stroke-width="" stroke-linejoin="miter" d="M 70 38.125 L 70 25.625 L 36.991 25.625 L 31.765 31.875 L 23.906 38.125 Z"/><path stroke="black" fill="black" stroke-width="" stroke-linejoin="miter" d="M -70 38.125 L -70 25.625 L -36.991 25.625 L -31.765 31.875 L -23.906 38.125 Z"/><path stroke="black" fill="black" stroke-width="" stroke-linejoin="miter" d="M 70 70 L 70 57.5 L -70 57.5 L -70 70 Z"/></svg>