<?xml version="1.0"?><svg fill="transparent" viewBox="-100 -100 200 200" width="200px" height="200px" xmlns="http://www.w3.org/2000/svg"><path stroke="black" fill="none" stroke-width="12.5" stroke-linejoin="miter" d="M -70 70 L -70 -70 L 70 -70 L 70 70 Z"/><circle cx="0" cy="2" r="12.5" stroke="black" fill="black" stroke-width=""/><path stroke="black" fill="none" stroke-width="10" d="M 0 37 C  -7.660444 43.42788,  -19.01736 53.69468,  -31.15262 44.8779 C  -43.28787 36.06112,  -37.03304 22.08743,  -33.28698 12.81559 C  -41.76746 7.516402,  -55.04125 -0.1120522,  -50.40599 -14.3779 C  -45.77074 -28.64375,  -30.54812 -27.01316,  -20.57248 -26.3156 C  -18.15326 -36.01855,  -15 -51,  9.301504e-7 -51 C  15 -51,  18.15326 -36.01855,  20.57248 -26.3156 C  30.54812 -27.01316,  45.77074 -28.64375,  50.40599 -14.3779 C  55.04125 -0.1120543,  41.76746 7.516402,  33.28698 12.81559 C  37.03304 22.08743,  43.28787 36.06112,  31.15262 44.8779 C  19.01736 53.69468,  7.660444 43.42788,  0 37 "/></svg>