<?xml version="1.0"?><svg fill="transparent" viewBox="-100 -100 200 200" width="200px" height="200px" xmlns="http://www.w3.org/2000/svg"><circle cx="-15" cy="31" r="5" stroke="black" fill="black" stroke-width="null"/><circle cx="48" cy="-2" r="5" stroke="black" fill="black" stroke-width="null"/><circle cx="-70" cy="31" r="5" stroke="black" fill="black" stroke-width="null"/><circle cx="17" cy="46" r="5" stroke="black" fill="black" stroke-width="null"/><circle cx="-34" cy="-13" r="5" stroke="black" fill="black" stroke-width="null"/><circle cx="-24" cy="-30" r="5" stroke="black" fill="black" stroke-width="null"/><circle cx="28" cy="-44" r="5" stroke="black" fill="black" stroke-width="null"/><circle cx="-4" cy="-26" r="5" stroke="black" fill="black" stroke-width="null"/><circle cx="47" cy="45" r="5" stroke="black" fill="black" stroke-width="null"/><circle cx="38" cy="-19" r="5" stroke="black" fill="black" stroke-width="null"/><circle cx="33" cy="64" r="5" stroke="black" fill="black" stroke-width="null"/><circle cx="62" cy="-41" r="5" stroke="black" fill="black" stroke-width="null"/><circle cx="-64" cy="-20" r="5" stroke="black" fill="black" stroke-width="null"/><circle cx="-65" cy="-62" r="5" stroke="black" fill="black" stroke-width="null"/><circle cx="56" cy="25" r="5" stroke="black" fill="black" stroke-width="null"/><circle cx="69" cy="67" r="5" stroke="black" fill="black" stroke-width="null"/><circle cx="-41" cy="-42" r="5" stroke="black" fill="black" stroke-width="null"/><circle cx="-70" cy="65" r="5" stroke="black" fill="black" stroke-width="null"/><circle cx="20" cy="7" r="5" stroke="black" fill="black" stroke-width="null"/><circle cx="-39" cy="65" r="5" stroke="black" fill="black" stroke-width="null"/><circle cx="56" cy="-63" r="5" stroke="black" fill="black" stroke-width="null"/><circle cx="-52" cy="48" r="5" stroke="black" fill="black" stroke-width="null"/><circle cx="-34" cy="6" r="5" stroke="black" fill="black" stroke-width="null"/><circle cx="-6" cy="-65" r="5" stroke="black" fill="black" stroke-width="null"/><circle cx="-21" cy="69" r="5" stroke="black" fill="black" stroke-width="null"/><circle cx="67" cy="49" r="5" stroke="black" fill="black" stroke-width="null"/><circle cx="-51" cy="30" r="5" stroke="black" fill="black" stroke-width="null"/><circle cx="-2" cy="0" r="5" stroke="black" fill="black" stroke-width="null"/><circle cx="-61" cy="8" r="5" stroke="black" fill="black" stroke-width="null"/><circle cx="19" cy="-69" r="5" stroke="black" fill="black" stroke-width="null"/><circle cx="6" cy="-46" r="5" stroke="black" fill="black" stroke-width="null"/><circle cx="0" cy="56" r="5" stroke="black" fill="black" stroke-width="null"/><circle cx="6" cy="25" r="5" stroke="black" fill="black" stroke-width="null"/><circle cx="-25" cy="50" r="5" stroke="black" fill="black" stroke-width="null"/><circle cx="19" cy="-28" r="5" stroke="black" fill="black" stroke-width="null"/><circle cx="69" cy="12" r="5" stroke="black" fill="black" stroke-width="null"/><circle cx="66" cy="-19" r="5" stroke="black" fill="black" stroke-width="null"/><circle cx="-66" cy="-38" r="5" stroke="black" fill="black" stroke-width="null"/><circle cx="-24" cy="-65" r="5" stroke="black" fill="black" stroke-width="null"/><circle cx="35" cy="21" r="5" stroke="black" fill="black" stroke-width="null"/><circle cx="-33" cy="33" r="5" stroke="black" fill="black" stroke-width="null"/><circle cx="51" cy="63" r="5" stroke="black" fill="black" stroke-width="null"/><circle cx="38" cy="-67" r="5" stroke="black" fill="black" stroke-width="null"/><circle cx="14" cy="70" r="5" stroke="black" fill="black" stroke-width="null"/><circle cx="-44" cy="-66" r="5" stroke="black" fill="black" stroke-width="null"/><circle cx="13" cy="-10" r="5" stroke="black" fill="black" stroke-width="null"/><circle cx="-14" cy="-47" r="5" stroke="black" fill="black" stroke-width="null"/><circle cx="-17" cy="12" r="5" stroke="black" fill="black" stroke-width="null"/><circle cx="-16" cy="-12" r="5" stroke="black" fill="black" stroke-width="null"/><circle cx="-51" cy="-7" r="5" stroke="black" fill="black" stroke-width="null"/></svg>